# xmcd CD database file
# Copyright (C) 1993-1998 Ti Kan
# 
# Track frame offsets:
#     150
#     12525
#     26000
#     43320
#     58422
#     72190
#     92557
#     105095
#     122107
#     142035
#     158852
#     173840
#     189237
# 
# Disc length: 2685 seconds
# 
# Revision: 1
# Processed by: cddbd v1.4b41PL1 Copyright (c) Steve Scherf et al.
# Submitted via: DiscPlay 4.0.4
# 
DISCID=b20a7b0d
DTITLE=Tania Kernaghan - December Moon
DYEAR=1900
DGENRE=
TTITLE0=Nine Mile Run
TTITLE1=Boys in Boots
TTITLE2=Where The Murray Meets The Darling
TTITLE3=The Verandah
TTITLE4=Breaking In My Heart
TTITLE5=A Bushman Can't Survive
TTITLE6=Back Of The Barn
TTITLE7=Hobble Chains
TTITLE8=Mary Called Him Mister
TTITLE9=Leave Like A Man
TTITLE10=If I Were The Woman
TTITLE11=Trouble
TTITLE12=I'll Be Gone
EXTD=
EXTT0=
EXTT1=
EXTT2=
EXTT3=
EXTT4=
EXTT5=
EXTT6=
EXTT7=
EXTT8=
EXTT9=
EXTT10=
EXTT11=
EXTT12=
PLAYORDER=
